# WaveFront *.obj file (generated by Autodesk ATF)

mtllib Greifer2.mtl

g Solid1

v 1.574803 -1.181102 0.000000
v 1.968504 -1.181102 0.000000
v 1.574803 -1.121537 0.280232
v 1.574803 -1.121537 -0.280232
v 1.968504 -1.121537 0.280232
v 1.968504 -1.121537 -0.280232
v 1.574803 -0.953141 0.512009
v 1.574803 -0.953141 -0.512009
v 1.968504 -0.953141 0.512009
v 1.968504 -0.953141 -0.512009
v 1.574803 -0.705031 0.655255
v 1.574803 -0.705031 -0.655255
v 1.968504 -0.705031 0.655255
v 1.968504 -0.705031 -0.655255
v 1.968504 -0.677105 0.067327
v 1.968504 -0.677105 -0.067327
v 2.362205 -0.677105 0.067327
v 2.362205 -0.677105 -0.067327
v 1.968504 -0.590551 0.170477
v 1.968504 -0.590551 -0.170477
v 2.362205 -0.590551 0.170477
v 2.362205 -0.590551 -0.170477
v 1.968504 -0.457943 0.193860
v 1.968504 -0.457943 -0.193860
v 2.362205 -0.457943 0.193860
v 2.362205 -0.457943 -0.193860
v 1.574803 -0.420108 0.685202
v 1.574803 -0.420108 -0.685202
v 1.968504 -0.420108 0.685202
v 1.968504 -0.420108 -0.685202
v 1.968504 -0.341330 0.126533
v 1.968504 -0.341330 -0.126533
v 2.362205 -0.341330 0.126533
v 2.362205 -0.341330 -0.126533
v 1.968504 -0.295276 0.000000
v 2.362205 -0.295276 0.000000
v 1.574803 -0.147638 0.596671
v 1.574803 -0.147638 -0.596671
v 1.968504 -0.147638 0.596671
v 1.968504 -0.147638 -0.596671
v 1.574803 0.065268 0.404970
v 1.574803 0.065268 -0.404970
v 1.968504 0.065268 0.404970
v 1.968504 0.065268 -0.404970
v 1.574803 0.181795 0.143246
v 1.574803 0.181795 -0.143246
v 1.968504 0.181795 0.143246
v 1.968504 0.181795 -0.143246
vt -0.500000 0.000000 0.000000
vt -0.500000 -0.349066 0.000000
vt -0.500000 -0.698132 0.000000
vt -0.500000 -1.047198 0.000000
vt -0.500000 -1.396263 0.000000
vt -0.500000 1.396263 0.000000
vt -0.500000 1.047198 0.000000
vt -0.500000 0.698132 0.000000
vt -0.500000 0.349066 0.000000
vt 0.500000 0.000000 0.000000
vt 0.500000 0.349066 0.000000
vt 0.500000 0.698132 0.000000
vt 0.500000 1.047198 0.000000
vt 0.500000 -1.745329 0.000000
vt 0.500000 -1.396263 0.000000
vt 0.500000 -1.047198 0.000000
vt 0.500000 -0.698132 0.000000
vt 0.500000 -0.349066 0.000000
vt 0.500000 1.396263 0.000000
vt 0.500000 1.396263 0.000000
vt -0.500000 -1.745329 0.000000
vt -0.500000 -1.745329 0.000000
vt -1.750000 0.000000 0.000000
vt -1.633022 -0.321394 0.000000
vt -1.336824 -0.492404 0.000000
vt -1.000000 -0.433013 0.000000
vt -0.780154 -0.171010 0.000000
vt -0.780154 0.171010 0.000000
vt -1.000000 0.433013 0.000000
vt -1.336824 0.492404 0.000000
vt -1.633022 0.321394 0.000000
vt 0.500000 0.000000 0.000000
vt 0.348705 0.711789 0.000000
vt -0.079021 1.300503 0.000000
vt -0.709220 1.664349 0.000000
vt -1.432925 1.740413 0.000000
vt -2.125000 1.515544 0.000000
vt -2.665780 1.028624 0.000000
vt -2.961758 0.363845 0.000000
vt -2.961758 -0.363845 0.000000
vt -2.665780 -1.028624 0.000000
vt -2.125000 -1.515544 0.000000
vt -1.432925 -1.740413 0.000000
vt -0.709220 -1.664349 0.000000
vt -0.079021 -1.300503 0.000000
vt 0.348705 -0.711789 0.000000
vt -1.750000 0.000000 0.000000
vt -1.633022 0.321394 0.000000
vt -1.336824 0.492404 0.000000
vt -1.000000 0.433013 0.000000
vt -0.780154 0.171010 0.000000
vt -0.780154 -0.171010 0.000000
vt -1.000000 -0.433013 0.000000
vt -1.336824 -0.492404 0.000000
vt -1.633022 -0.321394 0.000000
vt -0.500000 0.000000 0.000000
vt -0.348705 -0.711789 0.000000
vt 0.079021 -1.300503 0.000000
vt 0.709220 -1.664349 0.000000
vt 1.432925 -1.740413 0.000000
vt 2.125000 -1.515544 0.000000
vt 2.665780 -1.028624 0.000000
vt 2.961758 -0.363845 0.000000
vt 2.961758 0.363845 0.000000
vt 2.665780 1.028624 0.000000
vt 2.125000 1.515544 0.000000
vt 1.432925 1.740413 0.000000
vt 0.709220 1.664349 0.000000
vt 0.079021 1.300503 0.000000
vt -0.348705 0.711789 0.000000
vt -0.500000 0.000000 0.000000
vt -0.500000 -0.733038 0.000000
vt -0.500000 -1.466077 0.000000
vt -0.500000 -2.199115 0.000000
vt -0.500000 -2.932153 0.000000
vt -0.500000 -3.665192 0.000000
vt -0.500000 -4.398230 0.000000
vt -0.500000 -5.131268 0.000000
vt -0.500000 5.131268 0.000000
vt -0.500000 4.398230 0.000000
vt -0.500000 3.665192 0.000000
vt -0.500000 2.932153 0.000000
vt -0.500000 2.199115 0.000000
vt -0.500000 1.466077 0.000000
vt -0.500000 0.733038 0.000000
vt 0.500000 0.000000 0.000000
vt 0.500000 0.733038 0.000000
vt 0.500000 1.466077 0.000000
vt 0.500000 2.199115 0.000000
vt 0.500000 2.932153 0.000000
vt 0.500000 3.665192 0.000000
vt 0.500000 4.398230 0.000000
vt 0.500000 -5.864306 0.000000
vt 0.500000 -5.131268 0.000000
vt 0.500000 -4.398230 0.000000
vt 0.500000 -3.665192 0.000000
vt 0.500000 -2.932153 0.000000
vt 0.500000 -2.199115 0.000000
vt 0.500000 -1.466077 0.000000
vt 0.500000 -0.733038 0.000000
vt 0.500000 5.131268 0.000000
vt 0.500000 5.131268 0.000000
vt -0.500000 -5.864306 0.000000
vt -0.500000 -5.864306 0.000000
vn 0.000000 2.540000 0.000000
vn 0.000000 1.945753 -1.632681
vn 0.000000 0.441066 -2.501412
vn 0.000000 -1.270000 -2.199704
vn 0.000000 -2.386819 -0.868731
vn 0.000000 -2.386819 0.868731
vn 0.000000 -1.270000 2.199704
vn 0.000000 0.441066 2.501412
vn 0.000000 1.945753 1.632681
vn 0.000000 2.540000 0.000000
vn 0.000000 1.945753 1.632681
vn 0.000000 0.441066 2.501412
vn 0.000000 -1.270000 2.199704
vn 0.000000 -2.386819 0.868731
vn 0.000000 -2.386819 -0.868731
vn 0.000000 -1.270000 -2.199704
vn 0.000000 0.441066 -2.501412
vn 0.000000 1.945753 -1.632681
vn 0.000000 -2.386819 0.868731
vn 0.000000 -2.386819 0.868731
vn 0.000000 -2.386819 0.868731
vn 0.000000 -2.386819 0.868731
vn 2.540000 0.000000 0.000000
vn 2.540000 0.000000 0.000000
vn 2.540000 0.000000 0.000000
vn 2.540000 0.000000 0.000000
vn 2.540000 0.000000 0.000000
vn 2.540000 0.000000 0.000000
vn 2.540000 0.000000 0.000000
vn 2.540000 0.000000 0.000000
vn 2.540000 0.000000 0.000000
vn 2.540000 0.000000 0.000000
vn 2.540000 0.000000 0.000000
vn 2.540000 0.000000 0.000000
vn 2.540000 0.000000 0.000000
vn 2.540000 0.000000 0.000000
vn 2.540000 0.000000 0.000000
vn 2.540000 0.000000 0.000000
vn 2.540000 0.000000 0.000000
vn 2.540000 0.000000 0.000000
vn 2.540000 0.000000 0.000000
vn 2.540000 0.000000 0.000000
vn 2.540000 0.000000 0.000000
vn 2.540000 0.000000 0.000000
vn 2.540000 0.000000 0.000000
vn 2.540000 0.000000 0.000000
vn 2.540000 0.000000 0.000000
vn 2.540000 0.000000 0.000000
vn 2.540000 0.000000 0.000000
vn 2.540000 0.000000 0.000000
vn 2.540000 0.000000 0.000000
vn 2.540000 0.000000 0.000000
vn 2.540000 0.000000 0.000000
vn 2.540000 0.000000 0.000000
vn 2.540000 0.000000 0.000000
vn -2.540000 0.000000 0.000000
vn -2.540000 0.000000 0.000000
vn -2.540000 0.000000 0.000000
vn -2.540000 0.000000 0.000000
vn -2.540000 0.000000 0.000000
vn -2.540000 0.000000 0.000000
vn -2.540000 0.000000 0.000000
vn -2.540000 0.000000 0.000000
vn -2.540000 0.000000 0.000000
vn -2.540000 0.000000 0.000000
vn -2.540000 0.000000 0.000000
vn -2.540000 0.000000 0.000000
vn -2.540000 0.000000 0.000000
vn -2.540000 0.000000 0.000000
vn -2.540000 0.000000 0.000000
vn 0.000000 -2.540000 -0.000000
vn 0.000000 -2.320405 1.033111
vn 0.000000 -1.699592 1.887588
vn 0.000000 -0.784903 2.415684
vn 0.000000 0.265502 2.526086
vn 0.000000 1.270000 2.199704
vn 0.000000 2.054903 1.492975
vn 0.000000 2.484495 0.528096
vn 0.000000 2.484495 -0.528096
vn 0.000000 2.054903 -1.492975
vn 0.000000 1.270000 -2.199704
vn 0.000000 0.265502 -2.526086
vn 0.000000 -0.784903 -2.415684
vn 0.000000 -1.699592 -1.887588
vn 0.000000 -2.320405 -1.033111
vn 0.000000 -2.540000 -0.000000
vn 0.000000 -2.320405 -1.033111
vn 0.000000 -1.699592 -1.887588
vn 0.000000 -0.784903 -2.415684
vn 0.000000 0.265502 -2.526086
vn 0.000000 1.270000 -2.199704
vn 0.000000 2.054903 -1.492975
vn 0.000000 2.484495 -0.528096
vn 0.000000 2.484495 0.528096
vn 0.000000 2.054903 1.492975
vn 0.000000 1.270000 2.199704
vn 0.000000 0.265502 2.526086
vn 0.000000 -0.784903 2.415684
vn 0.000000 -1.699592 1.887588
vn 0.000000 -2.320405 1.033111
vn 0.000000 2.484495 -0.528096
vn 0.000000 2.484495 -0.528096
vn 0.000000 2.484495 -0.528096
vn 0.000000 2.484495 -0.528096
usemtl 191,191,191
f 34/2/2 35/10/10 36/1/1
f 36/1/1 35/10/10 31/11/11
f 36/1/1 31/11/11 33/9/9
f 33/9/9 31/11/11 23/12/12
f 33/9/9 23/12/12 25/8/8
f 25/8/8 23/12/12 19/13/13
f 25/8/8 19/13/13 21/7/7
f 21/7/7 19/13/13 15/19/19
f 21/7/7 15/20/20 17/6/6
f 17/21/21 15/14/14 16/15/15
f 17/22/22 16/15/15 18/5/5
f 18/5/5 16/15/15 20/16/16
f 18/5/5 20/16/16 22/4/4
f 22/4/4 20/16/16 24/17/17
f 22/4/4 24/17/17 26/3/3
f 26/3/3 24/17/17 32/18/18
f 26/3/3 32/18/18 34/2/2
f 34/2/2 32/18/18 35/10/10
f 33/24/24 17/27/27 36/23/23
f 36/23/23 17/27/27 18/28/28
f 36/23/23 18/28/28 34/31/31
f 34/31/31 18/28/28 22/29/29
f 34/31/31 22/29/29 26/30/30
f 25/25/25 21/26/26 33/24/24
f 33/24/24 21/26/26 17/27/27
f 6/33/33 16/51/51 2/32/32
f 2/32/32 16/51/51 15/52/52
f 2/32/32 15/52/52 5/46/46
f 5/46/46 15/52/52 9/45/45
f 9/45/45 15/52/52 19/53/53
f 9/45/45 19/53/53 13/44/44
f 13/44/44 19/53/53 23/54/54
f 13/44/44 23/54/54 29/43/43
f 29/43/43 23/54/54 39/42/42
f 39/42/42 23/54/54 31/55/55
f 39/42/42 31/55/55 43/41/41
f 43/41/41 31/55/55 47/40/40
f 47/40/40 31/55/55 35/47/47
f 47/40/40 35/47/47 48/39/39
f 48/39/39 35/47/47 32/48/48
f 48/39/39 32/48/48 44/38/38
f 44/38/38 32/48/48 40/37/37
f 40/37/37 32/48/48 24/49/49
f 40/37/37 24/49/49 30/36/36
f 30/36/36 24/49/49 14/35/35
f 14/35/35 24/49/49 20/50/50
f 14/35/35 20/50/50 10/34/34
f 10/34/34 20/50/50 16/51/51
f 10/34/34 16/51/51 6/33/33
f 1/56/56 3/57/57 4/70/70
f 4/70/70 3/57/57 8/69/69
f 8/69/69 3/57/57 7/58/58
f 8/69/69 7/58/58 12/68/68
f 12/68/68 7/58/58 11/59/59
f 12/68/68 11/59/59 28/67/67
f 28/67/67 11/59/59 27/60/60
f 28/67/67 27/60/60 38/66/66
f 38/66/66 27/60/60 37/61/61
f 38/66/66 37/61/61 42/65/65
f 42/65/65 37/61/61 41/62/62
f 42/65/65 41/62/62 46/64/64
f 46/64/64 41/62/62 45/63/63
f 5/72/72 1/86/86 2/71/71
f 2/71/71 1/86/86 4/87/87
f 2/71/71 4/87/87 6/85/85
f 6/85/85 4/87/87 8/88/88
f 6/85/85 8/88/88 10/84/84
f 10/84/84 8/88/88 12/89/89
f 10/84/84 12/89/89 14/83/83
f 14/83/83 12/89/89 28/90/90
f 14/83/83 28/90/90 30/82/82
f 30/82/82 28/90/90 38/91/91
f 30/82/82 38/91/91 40/81/81
f 40/81/81 38/91/91 42/92/92
f 40/81/81 42/92/92 44/80/80
f 44/80/80 42/92/92 46/101/101
f 44/80/80 46/102/102 48/79/79
f 48/103/103 46/93/93 45/94/94
f 48/104/104 45/94/94 47/78/78
f 47/78/78 45/94/94 41/95/95
f 47/78/78 41/95/95 43/77/77
f 43/77/77 41/95/95 37/96/96
f 43/77/77 37/96/96 39/76/76
f 39/76/76 37/96/96 27/97/97
f 39/76/76 27/97/97 29/75/75
f 29/75/75 27/97/97 11/98/98
f 29/75/75 11/98/98 13/74/74
f 13/74/74 11/98/98 7/99/99
f 13/74/74 7/99/99 9/73/73
f 9/73/73 7/99/99 3/100/100
f 9/73/73 3/100/100 5/72/72
f 5/72/72 3/100/100 1/86/86

g Solid2

v -1.574803 -0.984252 0.000000
v -1.438654 -0.984252 0.640530
v -1.438654 -0.984252 -0.640530
v -1.053749 -0.984252 1.170307
v -1.053749 -0.984252 -1.170307
v -0.583837 -0.984252 -0.088796
v -0.504322 -0.984252 0.307261
v -0.486641 -0.984252 1.497727
v -0.486641 -0.984252 -1.497727
v -0.390168 -0.984252 -0.443305
v -0.188830 -0.984252 0.559548
v -0.013935 -0.984252 -0.590387
v 0.164612 -0.984252 1.566176
v 0.164612 -0.984252 -1.566176
v 0.215019 -0.984252 0.550016
v 0.368818 -0.984252 -0.461220
v 0.518257 -0.984252 0.283125
v 0.578998 -0.984252 -0.116243
v 0.787402 -0.984252 1.363820
v 0.787402 -0.984252 -1.363820
v 1.274043 -0.984252 0.925646
v 1.274043 -0.984252 -0.925646
v 1.540390 -0.984252 0.327420
v 1.540390 -0.984252 -0.327420
v -1.574803 0.000000 0.000000
v -1.438654 0.000000 0.640530
v -1.438654 0.000000 -0.640530
v -1.053749 0.000000 1.170307
v -1.053749 0.000000 -1.170307
v -0.583837 0.000000 -0.088796
v -0.504322 0.000000 0.307261
v -0.486641 0.000000 1.497727
v -0.486641 0.000000 -1.497727
v -0.390168 0.000000 -0.443305
v -0.188830 0.000000 0.559548
v -0.013935 0.000000 -0.590387
v 0.164612 0.000000 1.566176
v 0.164612 0.000000 -1.566176
v 0.215019 0.000000 0.550016
v 0.368818 0.000000 -0.461220
v 0.518257 0.000000 0.283125
v 0.578998 0.000000 -0.116243
v 0.787402 0.000000 1.363820
v 0.787402 0.000000 -1.363820
v 1.274043 0.000000 0.925646
v 1.274043 0.000000 -0.925646
v 1.540390 0.000000 0.327420
v 1.540390 0.000000 -0.327420
vt -0.010000 0.000000 0.000000
vt -0.010000 -1.047198 0.000000
vt -0.010000 -2.094395 0.000000
vt -0.010000 -3.141593 0.000000
vt -0.010000 -4.188790 0.000000
vt -0.010000 4.188790 0.000000
vt -0.010000 3.141593 0.000000
vt -0.010000 2.094395 0.000000
vt -0.010000 1.047198 0.000000
vt 2.490000 0.000000 0.000000
vt 2.490000 1.047198 0.000000
vt 2.490000 2.094395 0.000000
vt 2.490000 3.141593 0.000000
vt 2.490000 -5.235988 0.000000
vt 2.490000 -4.188790 0.000000
vt 2.490000 -3.141593 0.000000
vt 2.490000 -2.094395 0.000000
vt 2.490000 -1.047198 0.000000
vt 2.490000 4.188790 0.000000
vt 2.490000 4.188790 0.000000
vt -0.010000 -5.235988 0.000000
vt -0.010000 -5.235988 0.000000
vt -4.000000 0.000000 0.000000
vt -3.654182 -1.626947 0.000000
vt -2.676522 -2.972579 0.000000
vt -1.236068 -3.804226 0.000000
vt 0.418114 -3.978088 0.000000
vt 2.000000 -3.464102 0.000000
vt 3.236068 -2.351141 0.000000
vt 3.912591 -0.831647 0.000000
vt 3.912591 0.831647 0.000000
vt 3.236068 2.351141 0.000000
vt 2.000000 3.464102 0.000000
vt 0.418114 3.978088 0.000000
vt -1.236068 3.804226 0.000000
vt -2.676522 2.972579 0.000000
vt -3.654182 1.626947 0.000000
vt 1.316374 -0.719138 0.000000
vt 0.546148 -1.397041 0.000000
vt -0.479627 -1.421252 0.000000
vt -1.280979 -0.780444 0.000000
vt -1.482947 0.225543 0.000000
vt -0.991027 1.125995 0.000000
vt -0.035395 1.499582 0.000000
vt 0.936799 1.171498 0.000000
vt 1.470654 0.295257 0.000000
vt -1.250000 0.000000 0.000000
vt -1.250000 -1.675516 0.000000
vt -1.250000 -3.351032 0.000000
vt -1.250000 -5.026548 0.000000
vt -1.250000 -6.702065 0.000000
vt -1.250000 -8.377581 0.000000
vt -1.250000 -10.053097 0.000000
vt -1.250000 -11.728613 0.000000
vt -1.250000 11.728613 0.000000
vt -1.250000 10.053097 0.000000
vt -1.250000 8.377581 0.000000
vt -1.250000 6.702065 0.000000
vt -1.250000 5.026548 0.000000
vt -1.250000 3.351032 0.000000
vt -1.250000 1.675516 0.000000
vt 1.250000 0.000000 0.000000
vt 1.250000 1.675516 0.000000
vt 1.250000 3.351032 0.000000
vt 1.250000 5.026548 0.000000
vt 1.250000 6.702065 0.000000
vt 1.250000 8.377581 0.000000
vt 1.250000 10.053097 0.000000
vt 1.250000 -13.404129 0.000000
vt 1.250000 -11.728613 0.000000
vt 1.250000 -10.053097 0.000000
vt 1.250000 -8.377581 0.000000
vt 1.250000 -6.702065 0.000000
vt 1.250000 -5.026548 0.000000
vt 1.250000 -3.351032 0.000000
vt 1.250000 -1.675516 0.000000
vt 1.250000 11.728613 0.000000
vt 1.250000 11.728613 0.000000
vt -1.250000 -13.404129 0.000000
vt -1.250000 -13.404129 0.000000
vt 4.000000 0.000000 0.000000
vt 3.654182 1.626947 0.000000
vt 2.676522 2.972579 0.000000
vt 1.236068 3.804226 0.000000
vt -0.418114 3.978088 0.000000
vt -2.000000 3.464102 0.000000
vt -3.236068 2.351141 0.000000
vt -3.912591 0.831647 0.000000
vt -3.912591 -0.831647 0.000000
vt -3.236068 -2.351141 0.000000
vt -2.000000 -3.464102 0.000000
vt -0.418114 -3.978088 0.000000
vt 1.236068 -3.804226 0.000000
vt 2.676522 -2.972579 0.000000
vt 3.654182 -1.626947 0.000000
vt -1.316374 -0.719138 0.000000
vt -1.470654 0.295257 0.000000
vt -0.936799 1.171498 0.000000
vt 0.035395 1.499582 0.000000
vt 0.991027 1.125995 0.000000
vt 1.482947 0.225543 0.000000
vt 1.280979 -0.780444 0.000000
vt 0.479627 -1.421252 0.000000
vt -0.546148 -1.397041 0.000000
vn -2.229060 0.000000 -1.217741
vn -2.490308 0.000000 0.499968
vn -1.586313 0.000000 1.983737
vn 0.059935 0.000000 2.539293
vn 1.678139 0.000000 1.906685
vn 2.511123 0.000000 0.381919
vn 2.169124 0.000000 -1.321552
vn 0.812169 0.000000 -2.406654
vn -0.924810 0.000000 -2.365656
vn -2.229060 0.000000 -1.217741
vn -0.924810 0.000000 -2.365656
vn 0.812169 0.000000 -2.406654
vn 2.169124 0.000000 -1.321552
vn 2.511123 0.000000 0.381919
vn 1.678139 0.000000 1.906685
vn 0.059935 0.000000 2.539293
vn -1.586313 0.000000 1.983737
vn -2.490308 0.000000 0.499968
vn 2.511123 0.000000 0.381919
vn 2.511123 0.000000 0.381919
vn 2.511123 0.000000 0.381919
vn 2.511123 0.000000 0.381919
vn 0.000000 2.540000 0.000000
vn 0.000000 2.540000 0.000000
vn 0.000000 2.540000 0.000000
vn 0.000000 2.540000 0.000000
vn 0.000000 2.540000 0.000000
vn 0.000000 2.540000 0.000000
vn 0.000000 2.540000 0.000000
vn 0.000000 2.540000 0.000000
vn 0.000000 2.540000 0.000000
vn 0.000000 2.540000 0.000000
vn 0.000000 2.540000 0.000000
vn 0.000000 2.540000 0.000000
vn 0.000000 2.540000 0.000000
vn 0.000000 2.540000 0.000000
vn 0.000000 2.540000 0.000000
vn 0.000000 2.540000 0.000000
vn 0.000000 2.540000 0.000000
vn 0.000000 2.540000 0.000000
vn 0.000000 2.540000 0.000000
vn 0.000000 2.540000 0.000000
vn 0.000000 2.540000 0.000000
vn 0.000000 2.540000 0.000000
vn 0.000000 2.540000 0.000000
vn 0.000000 2.540000 0.000000
vn -2.540000 0.000000 0.000000
vn -2.320405 0.000000 -1.033111
vn -1.699592 0.000000 -1.887588
vn -0.784903 0.000000 -2.415684
vn 0.265502 0.000000 -2.526086
vn 1.270000 0.000000 -2.199704
vn 2.054903 0.000000 -1.492975
vn 2.484495 0.000000 -0.528096
vn 2.484495 0.000000 0.528096
vn 2.054903 0.000000 1.492975
vn 1.270000 0.000000 2.199704
vn 0.265502 0.000000 2.526086
vn -0.784903 0.000000 2.415684
vn -1.699592 0.000000 1.887588
vn -2.320405 0.000000 1.033111
vn -2.540000 0.000000 0.000000
vn -2.320405 0.000000 1.033111
vn -1.699592 0.000000 1.887588
vn -0.784903 0.000000 2.415684
vn 0.265502 0.000000 2.526086
vn 1.270000 0.000000 2.199704
vn 2.054903 0.000000 1.492975
vn 2.484495 0.000000 0.528096
vn 2.484495 0.000000 -0.528096
vn 2.054903 0.000000 -1.492975
vn 1.270000 0.000000 -2.199704
vn 0.265502 0.000000 -2.526086
vn -0.784903 0.000000 -2.415684
vn -1.699592 0.000000 -1.887588
vn -2.320405 0.000000 -1.033111
vn 2.484495 0.000000 0.528096
vn 2.484495 0.000000 0.528096
vn 2.484495 0.000000 0.528096
vn 2.484495 0.000000 0.528096
vn 0.000000 -2.540000 -0.000000
vn 0.000000 -2.540000 -0.000000
vn 0.000000 -2.540000 -0.000000
vn 0.000000 -2.540000 -0.000000
vn 0.000000 -2.540000 -0.000000
vn 0.000000 -2.540000 -0.000000
vn 0.000000 -2.540000 -0.000000
vn 0.000000 -2.540000 -0.000000
vn 0.000000 -2.540000 -0.000000
vn 0.000000 -2.540000 -0.000000
vn 0.000000 -2.540000 -0.000000
vn 0.000000 -2.540000 -0.000000
vn 0.000000 -2.540000 -0.000000
vn 0.000000 -2.540000 -0.000000
vn 0.000000 -2.540000 -0.000000
vn 0.000000 -2.540000 -0.000000
vn 0.000000 -2.540000 -0.000000
vn 0.000000 -2.540000 -0.000000
vn 0.000000 -2.540000 -0.000000
vn 0.000000 -2.540000 -0.000000
vn 0.000000 -2.540000 -0.000000
vn 0.000000 -2.540000 -0.000000
vn 0.000000 -2.540000 -0.000000
vn 0.000000 -2.540000 -0.000000
f 90/106/106 65/114/114 89/105/105
f 89/105/105 65/114/114 63/115/115
f 89/105/105 63/115/115 87/113/113
f 87/113/113 63/115/115 59/116/116
f 87/113/113 59/116/116 83/112/112
f 83/112/112 59/116/116 55/117/117
f 83/112/112 55/117/117 79/111/111
f 79/111/111 55/117/117 54/123/123
f 79/111/111 54/124/124 78/110/110
f 78/125/125 54/118/118 58/119/119
f 78/126/126 58/119/119 82/109/109
f 82/109/109 58/119/119 60/120/120
f 82/109/109 60/120/120 84/108/108
f 84/108/108 60/120/120 64/121/121
f 84/108/108 64/121/121 88/107/107
f 88/107/107 64/121/121 66/122/122
f 88/107/107 66/122/122 90/106/106
f 90/106/106 66/122/122 65/114/114
f 74/128/128 79/145/145 73/127/127
f 73/127/127 79/145/145 78/146/146
f 73/127/127 78/146/146 75/141/141
f 75/141/141 78/146/146 82/147/147
f 75/141/141 82/147/147 77/140/140
f 77/140/140 82/147/147 81/139/139
f 81/139/139 82/147/147 84/148/148
f 81/139/139 84/148/148 86/138/138
f 86/138/138 84/148/148 92/137/137
f 92/137/137 84/148/148 88/149/149
f 92/137/137 88/149/149 94/136/136
f 94/136/136 88/149/149 90/150/150
f 94/136/136 90/150/150 96/135/135
f 96/135/135 90/150/150 95/134/134
f 95/134/134 90/150/150 89/142/142
f 95/134/134 89/142/142 93/133/133
f 93/133/133 89/142/142 91/132/132
f 91/132/132 89/142/142 87/143/143
f 91/132/132 87/143/143 85/131/131
f 85/131/131 87/143/143 83/144/144
f 85/131/131 83/144/144 80/130/130
f 80/130/130 83/144/144 76/129/129
f 76/129/129 83/144/144 79/145/145
f 76/129/129 79/145/145 74/128/128
f 75/152/152 49/166/166 73/151/151
f 73/151/151 49/166/166 50/167/167
f 73/151/151 50/167/167 74/165/165
f 74/165/165 50/167/167 52/168/168
f 74/165/165 52/168/168 76/164/164
f 76/164/164 52/168/168 56/169/169
f 76/164/164 56/169/169 80/163/163
f 80/163/163 56/169/169 61/170/170
f 80/163/163 61/170/170 85/162/162
f 85/162/162 61/170/170 67/171/171
f 85/162/162 67/171/171 91/161/161
f 91/161/161 67/171/171 69/172/172
f 91/161/161 69/172/172 93/160/160
f 93/160/160 69/172/172 71/181/181
f 93/160/160 71/182/182 95/159/159
f 95/183/183 71/173/173 72/174/174
f 95/184/184 72/174/174 96/158/158
f 96/158/158 72/174/174 70/175/175
f 96/158/158 70/175/175 94/157/157
f 94/157/157 70/175/175 68/176/176
f 94/157/157 68/176/176 92/156/156
f 92/156/156 68/176/176 62/177/177
f 92/156/156 62/177/177 86/155/155
f 86/155/155 62/177/177 57/178/178
f 86/155/155 57/178/178 81/154/154
f 81/154/154 57/178/178 53/179/179
f 81/154/154 53/179/179 77/153/153
f 77/153/153 53/179/179 51/180/180
f 77/153/153 51/180/180 75/152/152
f 75/152/152 51/180/180 49/166/166
f 51/186/186 54/205/205 49/185/185
f 49/185/185 54/205/205 55/206/206
f 49/185/185 55/206/206 50/199/199
f 50/199/199 55/206/206 52/198/198
f 52/198/198 55/206/206 59/207/207
f 52/198/198 59/207/207 56/197/197
f 56/197/197 59/207/207 61/196/196
f 61/196/196 59/207/207 63/208/208
f 61/196/196 63/208/208 67/195/195
f 67/195/195 63/208/208 65/200/200
f 67/195/195 65/200/200 69/194/194
f 69/194/194 65/200/200 71/193/193
f 71/193/193 65/200/200 66/201/201
f 71/193/193 66/201/201 72/192/192
f 72/192/192 66/201/201 70/191/191
f 70/191/191 66/201/201 64/202/202
f 70/191/191 64/202/202 68/190/190
f 68/190/190 64/202/202 60/203/203
f 68/190/190 60/203/203 62/189/189
f 62/189/189 60/203/203 57/188/188
f 57/188/188 60/203/203 58/204/204
f 57/188/188 58/204/204 53/187/187
f 53/187/187 58/204/204 51/186/186
f 51/186/186 58/204/204 54/205/205

# 96 vertices
# 208 texture params
# 208 normals
# 188 facets

# 2 groups
