# WaveFront *.obj file (generated by Autodesk ATF)

mtllib Flansch.mtl

g Solid1

v -0.393701 0.163710 -0.770195
v -0.393701 -0.163710 -0.770195
v -0.393701 0.462823 -0.637021
v -0.393701 -0.462823 -0.637021
v -0.393701 0.681910 -0.393701
v -0.393701 -0.681910 -0.393701
v -0.393701 -0.029599 -0.194612
v -0.393701 0.102420 -0.168107
v -0.393701 -0.147768 -0.130056
v -0.393701 0.783088 -0.082306
v -0.393701 -0.783088 -0.082306
v -0.393701 0.186516 -0.062943
v -0.393701 -0.196796 -0.004645
v -0.393701 0.183339 0.071673
v -0.393701 -0.153740 0.122939
v -0.393701 0.094375 0.172752
v -0.393701 -0.038748 0.192999
v -0.393701 0.748863 0.243320
v -0.393701 -0.748863 0.243320
v -0.393701 0.585153 0.526875
v -0.393701 -0.585153 0.526875
v -0.393701 0.320265 0.719327
v -0.393701 -0.320265 0.719327
v -0.393701 0.000000 0.787402
v 0.000000 0.163710 -0.770195
v 0.000000 -0.163710 -0.770195
v 0.000000 0.462823 -0.637021
v 0.000000 -0.462823 -0.637021
v 0.000000 0.681910 -0.393701
v 0.000000 -0.681910 -0.393701
v 0.000000 -0.029599 -0.194612
v 0.000000 0.102420 -0.168107
v 0.000000 -0.147768 -0.130056
v 0.000000 0.783088 -0.082306
v 0.000000 -0.783088 -0.082306
v 0.000000 0.186516 -0.062943
v 0.000000 -0.196796 -0.004645
v 0.000000 0.183339 0.071673
v 0.000000 -0.153740 0.122939
v 0.000000 0.094375 0.172752
v 0.000000 -0.038748 0.192999
v 0.000000 0.748863 0.243320
v 0.000000 -0.748863 0.243320
v 0.000000 0.585153 0.526875
v 0.000000 -0.585153 0.526875
v 0.000000 0.320265 0.719327
v 0.000000 -0.320265 0.719327
v 0.000000 0.000000 0.787402
vt -0.010000 0.000000 0.000000
vt -0.010000 -0.349066 0.000000
vt -0.010000 -0.698132 0.000000
vt -0.010000 -1.047198 0.000000
vt -0.010000 -1.396263 0.000000
vt -0.010000 1.396263 0.000000
vt -0.010000 1.047198 0.000000
vt -0.010000 0.698132 0.000000
vt -0.010000 0.349066 0.000000
vt 0.990000 0.000000 0.000000
vt 0.990000 0.349066 0.000000
vt 0.990000 0.698132 0.000000
vt 0.990000 1.047198 0.000000
vt 0.990000 -1.745329 0.000000
vt 0.990000 -1.396263 0.000000
vt 0.990000 -1.047198 0.000000
vt 0.990000 -0.698132 0.000000
vt 0.990000 -0.349066 0.000000
vt 0.990000 1.396263 0.000000
vt 0.990000 1.396263 0.000000
vt -0.010000 -1.745329 0.000000
vt -0.010000 -1.745329 0.000000
vt -2.000000 0.000000 0.000000
vt -1.827091 -0.813473 0.000000
vt -1.338261 -1.486290 0.000000
vt -0.618034 -1.902113 0.000000
vt 0.209057 -1.989044 0.000000
vt 1.000000 -1.732051 0.000000
vt 1.618034 -1.175570 0.000000
vt 1.956295 -0.415823 0.000000
vt 1.956295 0.415823 0.000000
vt 1.618034 1.175570 0.000000
vt 1.000000 1.732051 0.000000
vt 0.209057 1.989044 0.000000
vt -0.618034 1.902113 0.000000
vt -1.338261 1.486290 0.000000
vt -1.827091 0.813473 0.000000
vt -0.438791 -0.239713 0.000000
vt -0.490218 0.098419 0.000000
vt -0.312266 0.390499 0.000000
vt 0.011798 0.499861 0.000000
vt 0.330342 0.375332 0.000000
vt 0.494316 0.075181 0.000000
vt 0.426993 -0.260148 0.000000
vt 0.159876 -0.473751 0.000000
vt -0.182049 -0.465680 0.000000
vt 2.000000 0.000000 0.000000
vt 1.827091 0.813473 0.000000
vt 1.338261 1.486290 0.000000
vt 0.618034 1.902113 0.000000
vt -0.209057 1.989044 0.000000
vt -1.000000 1.732051 0.000000
vt -1.618034 1.175570 0.000000
vt -1.956295 0.415823 0.000000
vt -1.956295 -0.415823 0.000000
vt -1.618034 -1.175570 0.000000
vt -1.000000 -1.732051 0.000000
vt -0.209057 -1.989044 0.000000
vt 0.618034 -1.902113 0.000000
vt 1.338261 -1.486290 0.000000
vt 1.827091 -0.813473 0.000000
vt 0.438791 -0.239713 0.000000
vt 0.182049 -0.465680 0.000000
vt -0.159876 -0.473751 0.000000
vt -0.426993 -0.260148 0.000000
vt -0.494316 0.075181 0.000000
vt -0.330342 0.375332 0.000000
vt -0.011798 0.499861 0.000000
vt 0.312266 0.390499 0.000000
vt 0.490218 0.098419 0.000000
vt -0.500000 0.000000 0.000000
vt -0.500000 -0.837758 0.000000
vt -0.500000 -1.675516 0.000000
vt -0.500000 -2.513274 0.000000
vt -0.500000 -3.351032 0.000000
vt -0.500000 -4.188790 0.000000
vt -0.500000 -5.026548 0.000000
vt -0.500000 -5.864306 0.000000
vt -0.500000 5.864306 0.000000
vt -0.500000 5.026548 0.000000
vt -0.500000 4.188790 0.000000
vt -0.500000 3.351032 0.000000
vt -0.500000 2.513274 0.000000
vt -0.500000 1.675516 0.000000
vt -0.500000 0.837758 0.000000
vt 0.500000 0.000000 0.000000
vt 0.500000 0.837758 0.000000
vt 0.500000 1.675516 0.000000
vt 0.500000 2.513274 0.000000
vt 0.500000 3.351032 0.000000
vt 0.500000 4.188790 0.000000
vt 0.500000 5.026548 0.000000
vt 0.500000 -6.702065 0.000000
vt 0.500000 -5.864306 0.000000
vt 0.500000 -5.026548 0.000000
vt 0.500000 -4.188790 0.000000
vt 0.500000 -3.351032 0.000000
vt 0.500000 -2.513274 0.000000
vt 0.500000 -1.675516 0.000000
vt 0.500000 -0.837758 0.000000
vt 0.500000 5.864306 0.000000
vt 0.500000 5.864306 0.000000
vt -0.500000 -6.702065 0.000000
vt -0.500000 -6.702065 0.000000
vn 0.000000 -1.217741 -2.229060
vn 0.000000 0.499968 -2.490308
vn 0.000000 1.983737 -1.586313
vn 0.000000 2.539293 0.059935
vn 0.000000 1.906685 1.678139
vn 0.000000 0.381919 2.511123
vn 0.000000 -1.321552 2.169124
vn 0.000000 -2.406654 0.812169
vn 0.000000 -2.365656 -0.924810
vn 0.000000 -1.217741 -2.229060
vn 0.000000 -2.365656 -0.924810
vn 0.000000 -2.406654 0.812169
vn 0.000000 -1.321552 2.169124
vn 0.000000 0.381919 2.511123
vn 0.000000 1.906685 1.678139
vn 0.000000 2.539293 0.059935
vn 0.000000 1.983737 -1.586313
vn 0.000000 0.499968 -2.490308
vn 0.000000 0.381919 2.511123
vn 0.000000 0.381919 2.511123
vn 0.000000 0.381919 2.511123
vn 0.000000 0.381919 2.511123
vn -2.540000 0.000000 0.000000
vn -2.540000 0.000000 0.000000
vn -2.540000 0.000000 0.000000
vn -2.540000 0.000000 0.000000
vn -2.540000 0.000000 0.000000
vn -2.540000 0.000000 0.000000
vn -2.540000 0.000000 0.000000
vn -2.540000 0.000000 0.000000
vn -2.540000 0.000000 0.000000
vn -2.540000 0.000000 0.000000
vn -2.540000 0.000000 0.000000
vn -2.540000 0.000000 0.000000
vn -2.540000 0.000000 0.000000
vn -2.540000 0.000000 0.000000
vn -2.540000 0.000000 0.000000
vn -2.540000 0.000000 0.000000
vn -2.540000 0.000000 0.000000
vn -2.540000 0.000000 0.000000
vn -2.540000 0.000000 0.000000
vn -2.540000 0.000000 0.000000
vn -2.540000 0.000000 0.000000
vn -2.540000 0.000000 0.000000
vn -2.540000 0.000000 0.000000
vn -2.540000 0.000000 0.000000
vn 2.540000 0.000000 0.000000
vn 2.540000 0.000000 0.000000
vn 2.540000 0.000000 0.000000
vn 2.540000 0.000000 0.000000
vn 2.540000 0.000000 0.000000
vn 2.540000 0.000000 0.000000
vn 2.540000 0.000000 0.000000
vn 2.540000 0.000000 0.000000
vn 2.540000 0.000000 0.000000
vn 2.540000 0.000000 0.000000
vn 2.540000 0.000000 0.000000
vn 2.540000 0.000000 0.000000
vn 2.540000 0.000000 0.000000
vn 2.540000 0.000000 0.000000
vn 2.540000 0.000000 0.000000
vn 2.540000 0.000000 0.000000
vn 2.540000 0.000000 0.000000
vn 2.540000 0.000000 0.000000
vn 2.540000 0.000000 0.000000
vn 2.540000 0.000000 0.000000
vn 2.540000 0.000000 0.000000
vn 2.540000 0.000000 0.000000
vn 2.540000 0.000000 0.000000
vn 2.540000 0.000000 0.000000
vn 0.000000 0.000000 2.540000
vn 0.000000 1.033111 2.320405
vn 0.000000 1.887588 1.699592
vn 0.000000 2.415684 0.784903
vn 0.000000 2.526086 -0.265502
vn 0.000000 2.199704 -1.270000
vn 0.000000 1.492975 -2.054903
vn 0.000000 0.528096 -2.484495
vn 0.000000 -0.528096 -2.484495
vn 0.000000 -1.492975 -2.054903
vn 0.000000 -2.199704 -1.270000
vn 0.000000 -2.526086 -0.265502
vn 0.000000 -2.415684 0.784903
vn 0.000000 -1.887588 1.699592
vn 0.000000 -1.033111 2.320405
vn 0.000000 0.000000 2.540000
vn 0.000000 -1.033111 2.320405
vn 0.000000 -1.887588 1.699592
vn 0.000000 -2.415684 0.784903
vn 0.000000 -2.526086 -0.265502
vn 0.000000 -2.199704 -1.270000
vn 0.000000 -1.492975 -2.054903
vn 0.000000 -0.528096 -2.484495
vn 0.000000 0.528096 -2.484495
vn 0.000000 1.492975 -2.054903
vn 0.000000 2.199704 -1.270000
vn 0.000000 2.526086 -0.265502
vn 0.000000 2.415684 0.784903
vn 0.000000 1.887588 1.699592
vn 0.000000 1.033111 2.320405
vn 0.000000 -0.528096 -2.484495
vn 0.000000 -0.528096 -2.484495
vn 0.000000 -0.528096 -2.484495
vn 0.000000 -0.528096 -2.484495
usemtl 191,191,191
f 41/2/2 16/10/10 40/1/1
f 40/1/1 16/10/10 14/11/11
f 40/1/1 14/11/11 38/9/9
f 38/9/9 14/11/11 12/12/12
f 38/9/9 12/12/12 36/8/8
f 36/8/8 12/12/12 8/13/13
f 36/8/8 8/13/13 32/7/7
f 32/7/7 8/13/13 7/19/19
f 32/7/7 7/20/20 31/6/6
f 31/21/21 7/14/14 9/15/15
f 31/22/22 9/15/15 33/5/5
f 33/5/5 9/15/15 13/16/16
f 33/5/5 13/16/16 37/4/4
f 37/4/4 13/16/16 15/17/17
f 37/4/4 15/17/17 39/3/3
f 39/3/3 15/17/17 17/18/18
f 39/3/3 17/18/18 41/2/2
f 41/2/2 17/18/18 16/10/10
f 22/24/24 16/38/38 24/23/23
f 24/23/23 16/38/38 17/39/39
f 24/23/23 17/39/39 23/37/37
f 23/37/37 17/39/39 15/40/40
f 23/37/37 15/40/40 21/36/36
f 21/36/36 15/40/40 19/35/35
f 19/35/35 15/40/40 13/41/41
f 19/35/35 13/41/41 11/34/34
f 11/34/34 13/41/41 6/33/33
f 6/33/33 13/41/41 9/42/42
f 6/33/33 9/42/42 4/32/32
f 4/32/32 9/42/42 7/43/43
f 4/32/32 7/43/43 2/31/31
f 2/31/31 7/43/43 1/30/30
f 1/30/30 7/43/43 8/44/44
f 1/30/30 8/44/44 3/29/29
f 3/29/29 8/44/44 5/28/28
f 5/28/28 8/44/44 12/45/45
f 5/28/28 12/45/45 10/27/27
f 10/27/27 12/45/45 14/46/46
f 10/27/27 14/46/46 18/26/26
f 18/26/26 14/46/46 20/25/25
f 20/25/25 14/46/46 16/38/38
f 20/25/25 16/38/38 22/24/24
f 47/48/48 41/70/70 48/47/47
f 48/47/47 41/70/70 40/62/62
f 48/47/47 40/62/62 46/61/61
f 46/61/61 40/62/62 44/60/60
f 44/60/60 40/62/62 38/63/63
f 44/60/60 38/63/63 42/59/59
f 42/59/59 38/63/63 34/58/58
f 34/58/58 38/63/63 36/64/64
f 34/58/58 36/64/64 29/57/57
f 29/57/57 36/64/64 32/65/65
f 29/57/57 32/65/65 27/56/56
f 27/56/56 32/65/65 25/55/55
f 25/55/55 32/65/65 31/66/66
f 25/55/55 31/66/66 26/54/54
f 26/54/54 31/66/66 28/53/53
f 28/53/53 31/66/66 33/67/67
f 28/53/53 33/67/67 30/52/52
f 30/52/52 33/67/67 37/68/68
f 30/52/52 37/68/68 35/51/51
f 35/51/51 37/68/68 43/50/50
f 43/50/50 37/68/68 39/69/69
f 43/50/50 39/69/69 45/49/49
f 45/49/49 39/69/69 47/48/48
f 47/48/48 39/69/69 41/70/70
f 46/72/72 24/86/86 48/71/71
f 48/71/71 24/86/86 23/87/87
f 48/71/71 23/87/87 47/85/85
f 47/85/85 23/87/87 21/88/88
f 47/85/85 21/88/88 45/84/84
f 45/84/84 21/88/88 19/89/89
f 45/84/84 19/89/89 43/83/83
f 43/83/83 19/89/89 11/90/90
f 43/83/83 11/90/90 35/82/82
f 35/82/82 11/90/90 6/91/91
f 35/82/82 6/91/91 30/81/81
f 30/81/81 6/91/91 4/92/92
f 30/81/81 4/92/92 28/80/80
f 28/80/80 4/92/92 2/101/101
f 28/80/80 2/102/102 26/79/79
f 26/103/103 2/93/93 1/94/94
f 26/104/104 1/94/94 25/78/78
f 25/78/78 1/94/94 3/95/95
f 25/78/78 3/95/95 27/77/77
f 27/77/77 3/95/95 5/96/96
f 27/77/77 5/96/96 29/76/76
f 29/76/76 5/96/96 10/97/97
f 29/76/76 10/97/97 34/75/75
f 34/75/75 10/97/97 18/98/98
f 34/75/75 18/98/98 42/74/74
f 42/74/74 18/98/98 20/99/99
f 42/74/74 20/99/99 44/73/73
f 44/73/73 20/99/99 22/100/100
f 44/73/73 22/100/100 46/72/72
f 46/72/72 22/100/100 24/86/86

# 48 vertices
# 104 texture params
# 104 normals
# 96 facets

# 1 groups
